<svg width="195" height="195" viewBox="0 0 195 195" fill="none" xmlns="http://www.w3.org/2000/svg">
<path d="M59.4019 71.2477H73.9714C79.4139 61.263 88.7153 53.6923 99.8791 50.5452C97.6331 45.092 92.2699 41.2533 86.0085 41.2533C84.4432 41.2533 82.9353 41.4944 81.5182 41.9381C81.5258 41.7104 81.5357 41.483 81.5357 41.2533C81.5357 30.1154 72.5039 21.0845 61.3653 21.0845C51.7588 21.0845 43.728 27.7998 41.6969 36.7908C40.4903 36.3886 39.203 36.1685 37.862 36.1685C33.7357 36.1685 30.0932 38.2343 27.9089 41.3874C26.6902 41.0732 25.4105 40.903 24.0931 40.903C15.7141 40.903 8.92188 47.6956 8.92188 56.0749C8.92188 64.4527 15.7145 71.2469 24.0931 71.2469H48.349" fill="#9FDEF7"/>
<path d="M142.265 62.0644C134.47 53.7262 123.372 48.5142 111.057 48.5142C90.7161 48.5142 73.7076 62.7374 69.4054 81.7785C66.8521 80.9269 64.1248 80.4585 61.2862 80.4585C52.5466 80.4585 44.8346 84.8346 40.209 91.5118C37.6272 90.8449 34.9196 90.4865 32.1287 90.4865C14.3844 90.4865 0 104.871 0 122.615C0 140.359 14.3844 154.745 32.1287 154.745H67.5529C67.6276 143.824 76.499 134.994 87.4361 134.994C89.5103 134.994 91.5102 135.312 93.3901 135.902C93.3814 135.601 93.3677 135.299 93.3677 134.994C93.3677 120.222 105.343 108.246 120.115 108.246C132.852 108.246 143.503 117.154 146.197 129.076C147.796 128.543 149.502 128.25 151.28 128.25C156.752 128.25 161.583 130.99 164.479 135.172C166.096 134.754 167.791 134.529 169.538 134.529C176.863 134.529 183.271 138.444 186.789 144.293C191.891 138.659 195 131.186 195 122.988C195 105.447 180.781 91.23 163.242 91.23C159.93 91.23 156.737 91.7377 153.734 92.6784C153.75 92.1974 153.771 91.7152 153.771 91.23C153.771 84.0576 152.003 77.2985 148.879 71.3631" fill="#BEEAFC"/>
<path d="M34.065 90.5459C33.4244 90.507 32.7792 90.4861 32.1287 90.4861C14.3844 90.4857 0 104.87 0 122.615C0 140.358 14.3844 154.745 32.1287 154.745H67.5529C67.5761 151.318 68.467 148.097 70.0148 145.29C52.4994 131.811 39.5947 112.642 34.065 90.5459Z" fill="#AEE4FF"/>
<path d="M31.0835 66.2798C31.0835 55.8587 32.6862 45.8131 35.6535 36.3716C32.4535 36.9623 29.6945 38.8118 27.9094 41.3879C26.6907 41.0737 25.411 40.9034 24.0936 40.9034C15.7146 40.9034 8.92236 47.6961 8.92236 56.0754C8.92236 64.4532 15.715 71.2474 24.0936 71.2474H31.2073C31.1266 69.6013 31.0835 67.9457 31.0835 66.2798Z" fill="#83D4ED"/>
<path d="M169.538 133.679C167.791 133.679 166.095 133.903 164.479 134.322C161.583 130.139 156.753 127.399 151.28 127.399C149.503 127.399 147.796 127.692 146.197 128.226C143.503 116.303 132.852 107.396 120.115 107.396C105.343 107.396 93.3678 119.372 93.3678 134.144C93.3678 134.449 93.3811 134.75 93.3903 135.051C91.5104 134.462 89.5105 134.144 87.4363 134.144C76.4542 134.144 67.5508 143.046 67.5508 154.031C67.5508 165.013 76.4545 173.916 87.4363 173.916H146.976H158.026H169.539C180.651 173.916 189.659 164.908 189.659 153.797C189.658 142.686 180.65 133.679 169.538 133.679Z" fill="#E4F2F9"/>
<path d="M108.644 128.55C108.644 121.372 110.167 114.55 112.904 108.387C101.636 111.536 93.3673 121.871 93.3673 134.143C93.3673 134.448 93.3807 134.75 93.3898 135.051C91.5099 134.461 89.51 134.143 87.4358 134.143C76.4537 134.143 67.5503 143.045 67.5503 154.03C67.5503 165.013 76.4541 173.915 87.4358 173.915H137.967C120.68 166.125 108.644 148.743 108.644 128.55Z" fill="#D7EDF9"/>
</svg>
